<?xml version="1.0" encoding="UTF-8" standalone="no"?>
<svg width="52px" height="36px" viewBox="0 0 52 36" version="1.1" xmlns="http://www.w3.org/2000/svg" xmlns:xlink="http://www.w3.org/1999/xlink">
    <!-- Generator: Sketch 40.3 (33839) - http://www.bohemiancoding.com/sketch -->
    <title>delete@2x</title>
    <desc>Created with Sketch.</desc>
    <defs></defs>
    <g id="Page-1" stroke="none" stroke-width="1" fill="none" fill-rule="evenodd" stroke-linecap="round" stroke-linejoin="round">
        <g id="11设置支付密码" transform="translate(-601.000000, -1262.000000)" stroke="#000000" stroke-width="3">
            <g id="Keyboard" transform="translate(0.000000, 810.000000)">
                <g id="Group-3" transform="translate(601.000000, 452.000000)">
                    <path d="M2.76749844,20.0753177 C1.56471581,18.9291514 1.56496143,17.0706146 2.76749844,15.9246823 L17.0137031,2.34906268 C17.2160078,2.15628069 17.6057296,2 17.8793371,2 L47.0042033,2 C48.6587361,2 50,3.33425951 50,4.99610022 L50,31.0038998 C50,32.6586002 48.6604436,34 47.0042033,34 L17.8793371,34 C17.6035653,34 17.2138283,33.8416424 17.0137031,33.6509373 L2.76749844,20.0753177 Z" id="Back"></path>
                    <path d="M24.5,10.5 L38.5,24.5" id="Line"></path>
                    <path d="M24.5,10.5 L38.5,24.5" id="Line" transform="translate(31.500000, 17.500000) scale(-1, 1) translate(-31.500000, -17.500000) "></path>
                </g>
            </g>
        </g>
    </g>
</svg>